<svg version="1.2" xmlns="http://www.w3.org/2000/svg" viewBox="0 0 805 805" width="805" height="805">
	<style>
		.s0 { fill: #568b37 } 
	</style>
	<g>
		<path class="s0" d="m554.42 195.29c-45.75-1-88.31 18.6-123.76 50.43-6.01-41.49-22.23-74.77-22.23-74.77 191.89-25.98 138.24-170.65 138.24-170.65-135.39-5.74-161.66 75.31-164.46 128.5-41.73-44.62-88.83-70.15-108.52-79.05-18.73-8.47-40.75 1.29-48.55 20.27-7.8 19.04 1.64 39.97 20.31 48.54 24.69 11.36 102.21 39.39 125.65 129.64-36.01-33.37-79.58-52.91-126.52-52.91-123.64 0-237.93 102.27-198.04 302.37 32.65 163.73 151.85 302.34 275.48 302.34 32.23 0 57.59-9.22 77.46-25.81 19.92 16.55 45.25 25.97 77.48 25.81 127.86-0.79 236.95-131.32 275.48-302.34 39-173.05-51.3-299.19-198.02-302.37z"/>
	</g>
</svg>